<svg width="24" height="25" viewBox="0 0 24 25" fill="none" xmlns="http://www.w3.org/2000/svg">
<path d="M8.99931 11.5V6.5C8.99931 5.70435 9.31538 4.94129 9.87799 4.37868C10.4406 3.81607 11.2037 3.5 11.9993 3.5C12.795 3.5 13.558 3.81607 14.1206 4.37868C14.6832 4.94129 14.9993 5.70435 14.9993 6.5V11.5M6.33032 8.5H17.6693C17.9577 8.49997 18.2426 8.56229 18.5047 8.6827C18.7667 8.80311 18.9996 8.97876 19.1874 9.1976C19.3752 9.41645 19.5134 9.67331 19.5926 9.95059C19.6718 10.2279 19.6901 10.519 19.6463 10.804L18.3913 18.956C18.2824 19.6644 17.9234 20.3105 17.3793 20.7771C16.8352 21.2438 16.1421 21.5002 15.4253 21.5H8.57332C7.85672 21.5 7.1638 21.2434 6.61995 20.7768C6.0761 20.3102 5.71724 19.6643 5.60832 18.956L4.35332 10.804C4.30949 10.519 4.32781 10.2279 4.40702 9.95059C4.48624 9.67331 4.62448 9.41645 4.81226 9.1976C5.00005 8.97876 5.23293 8.80311 5.49496 8.6827C5.75698 8.56229 6.04195 8.49997 6.33032 8.5Z" stroke="#1C1C1D" stroke-width="1.5" stroke-linecap="round" stroke-linejoin="round"/>
</svg>
