<svg width="20" height="19" viewBox="0 0 20 19" fill="none" xmlns="http://www.w3.org/2000/svg">
<path d="M17.5001 10.0722L10.0001 17.5002L2.50006 10.0722C2.00536 9.59079 1.6157 9.01219 1.3556 8.37281C1.09551 7.73343 0.970619 7.04713 0.988794 6.35711C1.00697 5.66709 1.16782 4.98831 1.46121 4.36351C1.75461 3.73871 2.17419 3.18143 2.69354 2.72676C3.21289 2.27208 3.82076 1.92987 4.47887 1.72166C5.13697 1.51345 5.83106 1.44376 6.51743 1.51698C7.20379 1.5902 7.86756 1.80473 8.46693 2.14708C9.06631 2.48943 9.58831 2.95218 10.0001 3.50618C10.4136 2.9562 10.9362 2.4975 11.5352 2.15878C12.1341 1.82007 12.7966 1.60863 13.481 1.5377C14.1654 1.46677 14.8571 1.53787 15.5128 1.74657C16.1685 1.95526 16.7741 2.29705 17.2916 2.75054C17.8091 3.20403 18.2275 3.75946 18.5205 4.38207C18.8135 5.00468 18.9748 5.68106 18.9944 6.36889C19.0139 7.05671 18.8913 7.74117 18.6342 8.37943C18.3771 9.01768 17.991 9.596 17.5001 10.0782" stroke="currentColor" stroke-width="1.5" stroke-linecap="round" stroke-linejoin="round"/>
</svg>
